HIERARCHY
ROOT Hips
{
	OFFSET 0.000000 71.427986 0.000000
	CHANNELS 6 Xposition Yposition Zposition Xrotation Yrotation Zrotation
	JOINT Pelvis
	{
		OFFSET 0.000000 0.000000 0.000000
		CHANNELS 3 Xrotation Yrotation Zrotation
		JOINT LeftUpLeg
		{
			OFFSET 6.797100 -2.508499 -1.318700
			CHANNELS 3 Xrotation Yrotation Zrotation
			JOINT LeftLeg
			{
				OFFSET 0.069008 -29.241863 0.690200
				CHANNELS 3 Xrotation Yrotation Zrotation
				JOINT LeftFoot
				{
					OFFSET -0.069008 -29.568123 -0.266800
					CHANNELS 3 Xrotation Yrotation Zrotation
					JOINT LeftToeBase
					{
						OFFSET 3.145500 -8.631000 16.059900
						CHANNELS 3 Xrotation Yrotation Zrotation
						End Site
						{
							OFFSET 0.000000 18.501587 0.000000
						}
					}
				}
			}
			JOINT Left_ShortSleeve
			{
				OFFSET 0.265923 -10.480953 1.153800
				CHANNELS 3 Xrotation Yrotation Zrotation
				End Site
				{
					OFFSET 1.725763 19.823879 0.000000
				}
			}
		}
		JOINT RightUpLeg
		{
			OFFSET -6.797100 -2.508499 -1.318700
			CHANNELS 3 Xrotation Yrotation Zrotation
			JOINT RightLeg
			{
				OFFSET -0.082453 -29.241932 0.688000
				CHANNELS 3 Xrotation Yrotation Zrotation
				JOINT RightFoot
				{
					OFFSET 0.082453 -29.568058 -0.264600
					CHANNELS 3 Xrotation Yrotation Zrotation
					JOINT RightToeBase
					{
						OFFSET -3.115300 -8.682800 16.113400
						CHANNELS 3 Xrotation Yrotation Zrotation
						End Site
						{
							OFFSET 0.000000 18.567114 0.000000
						}
					}
				}
			}
			JOINT Right_ShortSleeve
			{
				OFFSET -0.265923 -10.480953 1.153800
				CHANNELS 3 Xrotation Yrotation Zrotation
				End Site
				{
					OFFSET -1.725766 19.823910 0.000000
				}
			}
		}
	}
	JOINT Spine
	{
		OFFSET 0.000000 13.368103 0.470500
		CHANNELS 3 Xrotation Yrotation Zrotation
		JOINT Spine1
		{
			OFFSET 0.147000 13.837402 0.538800
			CHANNELS 3 Xrotation Yrotation Zrotation
			JOINT Spine2
			{
				OFFSET 0.168000 16.242897 -1.435500
				CHANNELS 3 Xrotation Yrotation Zrotation
				JOINT Neck
				{
					OFFSET 0.217200 18.631500 -1.679100
					CHANNELS 3 Xrotation Yrotation Zrotation
					JOINT Head
					{
						OFFSET 0.000000 6.599396 1.385900
						CHANNELS 3 Xrotation Yrotation Zrotation
						JOINT Hat
						{
							OFFSET -0.532200 27.220596 -10.096100
							CHANNELS 3 Xrotation Yrotation Zrotation
							End Site
							{
								OFFSET 0.000000 22.029861 0.000000
							}
						}
						JOINT HairD
						{
							OFFSET -10.777400 17.437393 -1.325900
							CHANNELS 3 Xrotation Yrotation Zrotation
							JOINT HairD1
							{
								OFFSET -3.290299 -11.051193 1.062200
								CHANNELS 3 Xrotation Yrotation Zrotation
								End Site
								{
									OFFSET 0.000000 11.579437 0.000000
								}
							}
						}
						JOINT HairB
						{
							OFFSET -10.777400 17.437393 1.467900
							CHANNELS 3 Xrotation Yrotation Zrotation
							JOINT HairB1
							{
								OFFSET -1.561200 -12.956299 3.590200
								CHANNELS 3 Xrotation Yrotation Zrotation
								End Site
								{
									OFFSET 0.000000 13.534866 0.000000
								}
							}
						}
						JOINT HairA
						{
							OFFSET 9.713100 17.437393 1.467900
							CHANNELS 3 Xrotation Yrotation Zrotation
							JOINT HairA1
							{
								OFFSET 1.561200 -12.956299 3.590200
								CHANNELS 3 Xrotation Yrotation Zrotation
								End Site
								{
									OFFSET 0.000000 13.534866 0.000000
								}
							}
						}
						JOINT HairC
						{
							OFFSET 9.713100 17.437393 -1.325900
							CHANNELS 3 Xrotation Yrotation Zrotation
							JOINT HairC1
							{
								OFFSET 3.290300 -11.051193 1.062200
								CHANNELS 3 Xrotation Yrotation Zrotation
								End Site
								{
									OFFSET 0.000000 11.579437 0.000000
								}
							}
						}
					}
				}
				JOINT LeftShoulder
				{
					OFFSET 5.101800 15.108002 -2.763700
					CHANNELS 3 Xrotation Yrotation Zrotation
					JOINT LeftArm
					{
						OFFSET 9.825497 2.506317 -1.597400
						CHANNELS 3 Xrotation Yrotation Zrotation
						JOINT LeftForeArm
						{
							OFFSET 21.966244 0.000000 0.000000
							CHANNELS 3 Xrotation Yrotation Zrotation
							JOINT LeftHand
							{
								OFFSET 33.879036 0.000000 0.000000
								CHANNELS 3 Xrotation Yrotation Zrotation
								JOINT LeftHandThumb1
								{
									OFFSET 6.715286 -2.359680 3.363841
									CHANNELS 3 Xrotation Yrotation Zrotation
									JOINT LeftHandThumb2
									{
										OFFSET 2.507072 -1.447464 1.447461
										CHANNELS 3 Xrotation Yrotation Zrotation
										JOINT LeftHandThumb3
										{
											OFFSET 2.898338 -1.673355 1.673357
											CHANNELS 3 Xrotation Yrotation Zrotation
											End Site
											{
												OFFSET -0.295959 3.727692 -0.131651
											}
										}
									}
								}
								JOINT LeftHandIndex1
								{
									OFFSET 14.190811 -0.254547 3.840278
									CHANNELS 3 Xrotation Yrotation Zrotation
									JOINT LeftHandIndex2
									{
										OFFSET 3.551727 0.000000 -0.000000
										CHANNELS 3 Xrotation Yrotation Zrotation
										JOINT LeftHandIndex3
										{
											OFFSET 2.894196 0.000000 0.000000
											CHANNELS 3 Xrotation Yrotation Zrotation
											End Site
											{
												OFFSET -1.000603 2.690872 0.366626
											}
										}
									}
								}
								JOINT LeftHandMiddle1
								{
									OFFSET 13.776489 0.000000 0.000000
									CHANNELS 3 Xrotation Yrotation Zrotation
									JOINT LeftHandMiddle2
									{
										OFFSET 3.438232 0.000000 0.000000
										CHANNELS 3 Xrotation Yrotation Zrotation
										JOINT LeftHandMiddle3
										{
											OFFSET 3.691551 0.000000 0.000000
											CHANNELS 3 Xrotation Yrotation Zrotation
											End Site
											{
												OFFSET -1.082298 3.499527 0.457670
											}
										}
									}
								}
								JOINT LeftHandRing1
								{
									OFFSET 13.966164 -0.268127 -3.067488
									CHANNELS 3 Xrotation Yrotation Zrotation
									JOINT LeftHandRing2
									{
										OFFSET 3.162567 0.000000 0.000000
										CHANNELS 3 Xrotation Yrotation Zrotation
										JOINT LeftHandRing3
										{
											OFFSET 3.324348 0.000000 0.000000
											CHANNELS 3 Xrotation Yrotation Zrotation
											End Site
											{
												OFFSET -0.861900 3.184998 0.405154
											}
										}
									}
								}
								JOINT LeftHandPinky1
								{
									OFFSET 13.131393 -0.168503 -5.746925
									CHANNELS 3 Xrotation Yrotation Zrotation
									JOINT LeftHandPinky2
									{
										OFFSET 2.849182 0.000000 0.000000
										CHANNELS 3 Xrotation Yrotation Zrotation
										JOINT LeftHandPinky3
										{
											OFFSET 2.805038 0.000000 0.000000
											CHANNELS 3 Xrotation Yrotation Zrotation
											End Site
											{
												OFFSET -0.882500 2.642609 0.325652
											}
										}
									}
								}
							}
							JOINT Left_Sleeve
							{
								OFFSET 6.592125 -0.646545 0.805568
								CHANNELS 3 Xrotation Yrotation Zrotation
								End Site
								{
									OFFSET -0.000179 20.275787 -0.000000
								}
							}
						}
					}
				}
				JOINT RightShoulder
				{
					OFFSET -5.731700 15.108002 -2.763700
					CHANNELS 3 Xrotation Yrotation Zrotation
					JOINT RightArm
					{
						OFFSET -9.825497 2.506317 -1.597400
						CHANNELS 3 Xrotation Yrotation Zrotation
						JOINT RightForeArm
						{
							OFFSET -21.966242 0.000000 0.000000
							CHANNELS 3 Xrotation Yrotation Zrotation
							JOINT RightHand
							{
								OFFSET -33.879032 0.000000 0.000000
								CHANNELS 3 Xrotation Yrotation Zrotation
								JOINT RightHandThumb1
								{
									OFFSET -6.715286 -2.359680 3.363841
									CHANNELS 3 Xrotation Yrotation Zrotation
									JOINT RightHandThumb2
									{
										OFFSET -2.507072 -1.447464 1.447461
										CHANNELS 3 Xrotation Yrotation Zrotation
										JOINT RightHandThumb3
										{
											OFFSET -2.898338 -1.673355 1.673357
											CHANNELS 3 Xrotation Yrotation Zrotation
											End Site
											{
												OFFSET 0.295959 3.727692 -0.131651
											}
										}
									}
								}
								JOINT RightHandIndex1
								{
									OFFSET -14.190811 -0.254547 3.840278
									CHANNELS 3 Xrotation Yrotation Zrotation
									JOINT RightHandIndex2
									{
										OFFSET -3.551727 0.000000 -0.000000
										CHANNELS 3 Xrotation Yrotation Zrotation
										JOINT RightHandIndex3
										{
											OFFSET -2.894196 0.000000 0.000000
											CHANNELS 3 Xrotation Yrotation Zrotation
											End Site
											{
												OFFSET 1.000603 2.690872 0.366626
											}
										}
									}
								}
								JOINT RightHandMiddle1
								{
									OFFSET -13.776489 0.000000 0.000000
									CHANNELS 3 Xrotation Yrotation Zrotation
									JOINT RightHandMiddle2
									{
										OFFSET -3.438232 0.000000 0.000000
										CHANNELS 3 Xrotation Yrotation Zrotation
										JOINT RightHandMiddle3
										{
											OFFSET -3.691551 0.000000 0.000000
											CHANNELS 3 Xrotation Yrotation Zrotation
											End Site
											{
												OFFSET 1.082298 3.499527 0.457670
											}
										}
									}
								}
								JOINT RightHandRing1
								{
									OFFSET -13.966164 -0.268127 -3.067488
									CHANNELS 3 Xrotation Yrotation Zrotation
									JOINT RightHandRing2
									{
										OFFSET -3.162567 0.000000 0.000000
										CHANNELS 3 Xrotation Yrotation Zrotation
										JOINT RightHandRing3
										{
											OFFSET -3.324348 0.000000 0.000000
											CHANNELS 3 Xrotation Yrotation Zrotation
											End Site
											{
												OFFSET 0.861900 3.184998 0.405154
											}
										}
									}
								}
								JOINT RightHandPinky1
								{
									OFFSET -13.131393 -0.168503 -5.746925
									CHANNELS 3 Xrotation Yrotation Zrotation
									JOINT RightHandPinky2
									{
										OFFSET -2.849182 0.000000 0.000000
										CHANNELS 3 Xrotation Yrotation Zrotation
										JOINT RightHandPinky3
										{
											OFFSET -2.805038 0.000000 0.000000
											CHANNELS 3 Xrotation Yrotation Zrotation
											End Site
											{
												OFFSET 0.882500 2.642609 0.325652
											}
										}
									}
								}
							}
							JOINT Right_Sleeve
							{
								OFFSET -6.592125 -0.646545 0.805568
								CHANNELS 3 Xrotation Yrotation Zrotation
								End Site
								{
									OFFSET 0.000179 20.275787 -0.000000
								}
							}
						}
					}
				}
				JOINT Bind_Right_JacketString
				{
					OFFSET -3.534800 11.969597 7.200700
					CHANNELS 3 Xrotation Yrotation Zrotation
					JOINT Bind_Right_JacketString1
					{
						OFFSET -0.319900 -6.102600 2.794100
						CHANNELS 3 Xrotation Yrotation Zrotation
						End Site
						{
							OFFSET 0.000000 6.719452 0.000000
						}
					}
				}
				JOINT Bind_Left_JacketString
				{
					OFFSET 2.904800 11.969597 7.200700
					CHANNELS 3 Xrotation Yrotation Zrotation
					JOINT Bind_Left_JacketString1
					{
						OFFSET 0.364800 -5.904503 3.186800
						CHANNELS 3 Xrotation Yrotation Zrotation
						End Site
						{
							OFFSET 0.000000 6.719513 0.000000
						}
					}
				}
				JOINT HairE
				{
					OFFSET 5.915200 17.612701 -11.592200
					CHANNELS 3 Xrotation Yrotation Zrotation
					JOINT HairE1
					{
						OFFSET 0.289200 -7.171898 -1.284500
						CHANNELS 3 Xrotation Yrotation Zrotation
						End Site
						{
							OFFSET 0.000000 7.291756 0.000000
						}
					}
				}
				JOINT HairF
				{
					OFFSET -0.864800 17.612701 -11.592200
					CHANNELS 3 Xrotation Yrotation Zrotation
					JOINT HairF1
					{
						OFFSET 0.000000 -14.087097 -2.127501
						CHANNELS 3 Xrotation Yrotation Zrotation
						End Site
						{
							OFFSET 0.000000 14.246841 0.000000
						}
					}
				}
				JOINT HairG
				{
					OFFSET -8.087700 17.612701 -11.592200
					CHANNELS 3 Xrotation Yrotation Zrotation
					JOINT HairG1
					{
						OFFSET -0.293600 -6.081398 -0.910100
						CHANNELS 3 Xrotation Yrotation Zrotation
						End Site
						{
							OFFSET 0.000000 6.156120 0.000000
						}
					}
				}
			}
		}
	}
	JOINT Pouch
	{
		OFFSET 0.000000 4.394501 10.847300
		CHANNELS 3 Xrotation Yrotation Zrotation
		End Site
		{
			OFFSET 0.000000 21.880577 0.000000
		}
	}
	JOINT Bag
	{
		OFFSET -13.229000 4.813004 -0.593300
		CHANNELS 3 Xrotation Yrotation Zrotation
		End Site
		{
			OFFSET 0.000000 21.880577 0.000000
		}
	}
	JOINT OccupyGuyFacialAnim_Joint
	{
		OFFSET 1.000000 -70.206398 -1.655000
		CHANNELS 3 Xrotation Yrotation Zrotation
		End Site
		{
			OFFSET 0.000000 21.880577 0.000000
		}
	}
}
MOTION
Frames: 4
Frame Time: 0.033333
-0.219635 78.496902 -1.604752 -94.590620 -7.029498 -0.423296 0.000000 0.000000 -0.000000 2.691515 17.197224 10.509359 11.040886 -3.214875 5.213414 30.721750 28.735453 -29.806266 0.000000 0.000001 -0.000000 0.000000 0.000000 -0.000000 0.547900 -18.505679 -11.562372 6.522273 0.683248 -5.020755 35.402045 -29.546097 29.938355 0.000001 0.000000 -0.000001 0.000000 0.000000 -0.000000 0.326266 0.595002 -2.155225 1.558177 1.843374 -0.388061 1.645316 1.815455 -0.372849 -4.622241 8.988269 -0.555313 7.560134 28.437144 -6.692125 0.000000 -0.000002 -0.000000 0.000000 -0.000002 -0.000000 0.000000 -0.000002 -0.000000 0.000000 -0.000002 -0.000000 -0.000000 -0.000002 0.000001 0.000000 -0.000002 -0.000000 -0.000000 -0.000002 0.000001 0.000000 -0.000002 -0.000000 0.000000 -0.000002 -0.000000 0.519295 -0.559656 -2.611397 13.965447 -7.552831 -65.398242 0.000494 -101.950047 0.000507 -38.409101 4.061356 20.430351 -6.495926 -5.640825 -5.955267 8.913006 35.000263 3.059284 0.000001 -0.000001 -0.000001 -2.157670 -0.940661 -31.314351 1.183022 3.531564 -37.030584 0.000004 0.000002 -0.000002 1.451369 6.140545 -40.213780 1.381273 3.779546 -40.139188 -0.000000 0.000002 -0.000001 4.873431 9.497817 -45.590720 2.900631 5.054957 -59.674666 -0.000002 0.000001 -0.000001 6.057330 13.170200 -62.369674 2.870827 5.037471 -59.335820 -0.000001 0.000000 0.000001 0.000001 0.000000 0.000001 0.780817 2.629159 10.223584 38.512117 29.253693 34.341518 0.000043 102.248874 -0.000067 -39.327478 11.066109 13.044410 -8.245045 0.297089 -8.931540 7.579948 -24.795260 -2.906995 0.000003 0.000000 0.000003 0.905459 -3.314677 34.539454 0.217994 -1.409593 17.581800 0.000001 0.000000 0.000000 -0.241993 -3.204346 32.825353 0.218117 -1.409975 17.586651 0.000000 0.000000 -0.000001 -0.300126 -2.822089 28.489354 0.217992 -1.409600 17.581788 0.000000 -0.000001 -0.000000 0.330084 -3.878163 20.013574 0.218167 -1.410137 17.588690 -0.000001 0.000001 -0.000003 -0.000001 0.000001 0.000000 0.000000 0.000000 0.000000 0.000000 0.000000 0.000000 0.000000 0.000000 -0.000000 0.000000 0.000000 -0.000000 0.000000 0.000000 0.000000 0.000000 0.000000 0.000000 0.000000 0.000000 -0.000000 0.000000 0.000000 -0.000000 0.000000 0.000000 0.000000 0.000000 0.000000 0.000000 0.000000 0.000000 -0.000000 0.000000 0.000000 -0.000000 0.000000 0.000000 -0.000000 
-0.221410 78.492714 -1.606331 -94.592936 -7.031606 -0.421535 -0.000000 0.000001 0.000000 2.745658 17.216204 10.492143 10.929604 -3.210692 5.213416 30.814986 28.760571 -29.814612 0.000002 -0.000002 -0.000001 0.000000 0.000001 0.000000 0.564484 -18.433000 -11.551526 6.514115 0.610977 -5.020709 35.392486 -29.559402 29.951472 -0.000002 0.000001 0.000000 0.000000 -0.000001 -0.000002 0.330247 0.598108 -2.157479 1.564272 1.844350 -0.395870 1.656909 1.815967 -0.377625 -4.542716 9.003225 -0.608421 7.248681 28.581941 -6.469391 0.000000 0.000001 0.000000 0.000000 0.000001 0.000000 0.000000 0.000001 0.000000 0.000000 0.000001 0.000001 -0.000000 -0.000002 -0.000000 0.000000 0.000001 0.000001 -0.000000 -0.000002 -0.000000 0.000000 0.000001 0.000000 0.000000 0.000001 0.000000 0.516678 -0.632956 -2.589487 14.067727 -7.718482 -65.462186 0.000289 -101.963215 0.000291 -38.350658 3.919186 20.218629 -6.374407 -5.542633 -5.957297 8.910882 34.983795 3.058388 0.000001 0.000003 0.000001 -2.077541 -1.081604 -30.156914 1.163316 3.505322 -36.709326 0.000002 0.000003 -0.000003 1.410478 6.091918 -39.590908 1.368804 3.764730 -39.949626 0.000001 0.000002 -0.000002 4.815972 9.532764 -44.713693 2.899683 5.054399 -59.663847 -0.000002 0.000002 -0.000001 5.957577 13.286483 -61.619125 2.849565 5.024849 -59.093294 0.000001 -0.000000 -0.000001 0.000000 0.000000 0.000001 0.766451 2.736229 10.260781 38.564843 29.156213 34.302494 0.000135 102.296658 -0.000133 -39.339110 11.127150 12.975001 -8.245051 0.297090 -8.931548 7.579946 -24.795260 -2.906997 -0.000003 -0.000001 -0.000004 0.905456 -3.314675 34.539450 0.217996 -1.409591 17.581797 -0.000001 0.000000 0.000000 -0.241997 -3.204346 32.825350 0.218115 -1.409975 17.586644 0.000002 -0.000001 -0.000001 -0.300131 -2.822088 28.489349 0.217994 -1.409600 17.581788 0.000000 -0.000001 -0.000000 0.330081 -3.878163 20.013576 0.218168 -1.410138 17.588688 0.000000 0.000002 -0.000001 0.000002 -0.000001 -0.000004 -0.000000 -0.000000 0.000000 -0.000000 -0.000000 0.000000 -0.000000 -0.000000 -0.000000 -0.000000 -0.000000 -0.000000 -0.000000 -0.000000 0.000000 -0.000000 -0.000000 0.000000 -0.000000 -0.000000 -0.000000 -0.000000 -0.000000 -0.000000 -0.000000 -0.000000 0.000000 -0.000000 -0.000000 0.000000 -0.000000 0.000001 0.000000 -0.000000 0.000001 0.000000 -0.000000 0.000001 0.000000 
-0.223201 78.488823 -1.607971 -94.594452 -7.039397 -0.422145 -0.000000 0.000000 0.000000 2.812422 17.223159 10.471993 10.799038 -3.184031 5.213407 30.929757 28.792891 -29.826927 -0.000002 -0.000002 0.000000 -0.000000 0.000001 -0.000000 0.582687 -18.352817 -11.537416 6.505173 0.536194 -5.020647 35.380011 -29.575682 29.966997 -0.000002 0.000001 -0.000000 0.000000 -0.000000 -0.000000 0.337618 0.604796 -2.159437 1.568772 1.850428 -0.407133 1.666646 1.825408 -0.383196 -4.441250 8.976335 -0.660345 6.647488 28.536527 -6.135114 -0.000001 0.000000 0.000000 -0.000001 0.000000 0.000000 -0.000001 0.000000 0.000000 -0.000001 0.000000 -0.000000 -0.000000 0.000000 -0.000000 -0.000001 0.000000 -0.000000 -0.000000 0.000000 -0.000000 -0.000001 0.000000 0.000000 -0.000001 0.000000 0.000000 0.513534 -0.715360 -2.573001 14.159244 -7.851606 -65.515707 0.000728 -101.904066 0.000706 -38.372392 3.810037 20.047283 -6.263441 -5.458932 -5.962517 8.908911 34.968560 3.057551 0.000001 -0.000000 -0.000001 -1.992738 -1.209118 -29.022795 1.145383 3.481199 -36.415078 0.000003 0.000001 -0.000002 1.371146 6.044127 -38.984063 1.356961 3.750581 -39.768944 -0.000000 0.000000 0.000001 4.752807 9.562810 -43.839429 2.895397 5.051902 -59.615237 -0.000003 0.000001 -0.000001 5.850125 13.398307 -60.826516 2.821566 5.008053 -58.773225 0.000000 -0.000000 0.000001 0.000002 0.000000 0.000001 0.759417 2.807816 10.271448 38.603970 29.102726 34.280221 0.000134 102.325229 -0.000124 -39.348375 11.195470 12.911025 -8.245047 0.297090 -8.931546 7.579947 -24.795257 -2.907002 -0.000001 -0.000003 -0.000001 0.905458 -3.314677 34.539454 0.217995 -1.409594 17.581797 0.000001 0.000000 -0.000002 -0.241995 -3.204346 32.825353 0.218119 -1.409977 17.586655 0.000002 0.000000 -0.000001 -0.300128 -2.822088 28.489353 0.217992 -1.409600 17.581786 0.000003 -0.000000 -0.000000 0.330083 -3.878163 20.013576 0.218169 -1.410137 17.588688 0.000001 0.000001 -0.000003 0.000000 0.000002 -0.000000 0.000000 -0.000000 0.000000 0.000000 -0.000000 -0.000000 0.000000 -0.000000 0.000000 0.000000 -0.000000 0.000000 0.000000 -0.000000 0.000000 0.000000 -0.000000 0.000000 0.000000 -0.000000 0.000000 0.000000 -0.000000 0.000000 0.000000 -0.000000 0.000000 0.000000 -0.000000 0.000000 -0.000000 0.000000 0.000000 -0.000000 0.000000 0.000000 -0.000000 0.000000 0.000000 
-0.224995 78.485191 -1.609688 -94.597813 -7.050422 -0.423606 0.000001 0.000000 0.000000 2.892963 17.218514 10.447306 10.651511 -3.138686 5.213369 31.063345 28.831731 -29.842015 0.000001 0.000001 -0.000001 -0.000000 0.000000 -0.000001 0.604569 -18.266682 -11.523480 6.497798 0.457978 -5.020626 35.365552 -29.595203 29.982990 0.000000 -0.000002 0.000000 -0.000001 -0.000001 -0.000000 0.346545 0.615644 -2.161189 1.572702 1.861855 -0.421285 1.673299 1.839218 -0.390303 -4.330846 8.920427 -0.707152 5.867503 28.320362 -5.661229 0.000001 0.000001 -0.000000 0.000001 0.000001 -0.000000 0.000001 0.000001 -0.000000 0.000001 0.000001 -0.000001 0.000001 -0.000001 -0.000001 0.000001 0.000001 -0.000001 0.000001 -0.000001 -0.000001 0.000001 0.000001 -0.000000 0.000001 0.000001 -0.000000 0.510533 -0.792626 -2.560499 14.224684 -7.978268 -65.562617 0.000003 -101.813306 -0.000001 -38.451294 3.727737 19.904715 -6.169276 -5.390113 -5.968273 8.907154 34.954958 3.056808 0.000000 -0.000005 -0.000001 -1.904679 -1.321916 -27.925017 1.129504 3.459610 -36.152796 0.000000 -0.000000 0.000005 1.333761 5.997694 -38.399720 1.345978 3.737362 -39.600672 -0.000000 0.000000 -0.000001 4.687016 9.589397 -42.979706 2.886277 5.046576 -59.511616 -0.000002 0.000001 -0.000003 5.739256 13.503132 -60.009714 2.787080 4.987058 -58.377292 0.000001 0.000001 -0.000002 -0.000000 0.000001 0.000004 0.763158 2.811061 10.265151 38.608163 29.102241 34.280265 0.000408 102.327661 -0.000405 -39.345598 11.246939 12.881272 -8.245044 0.297092 -8.931546 7.579944 -24.795260 -2.906998 -0.000000 0.000001 -0.000001 0.905458 -3.314677 34.539450 0.217997 -1.409592 17.581802 0.000000 0.000001 -0.000001 -0.241991 -3.204346 32.825353 0.218117 -1.409975 17.586646 -0.000000 0.000000 -0.000001 -0.300127 -2.822088 28.489351 0.217995 -1.409599 17.581788 -0.000000 0.000001 -0.000001 0.330085 -3.878163 20.013574 0.218168 -1.410137 17.588687 -0.000000 0.000001 0.000001 -0.000002 -0.000002 0.000001 -0.000000 -0.000000 -0.000000 -0.000000 -0.000000 -0.000000 -0.000000 -0.000000 -0.000000 -0.000000 -0.000000 -0.000000 -0.000000 -0.000000 -0.000000 -0.000000 -0.000000 -0.000000 -0.000000 -0.000000 -0.000000 -0.000000 -0.000000 -0.000000 -0.000000 -0.000000 -0.000000 -0.000000 -0.000000 -0.000000 0.000001 0.000000 0.000000 0.000001 0.000000 0.000000 0.000001 0.000000 0.000000 
